<svg width="1595" height="1080" viewBox="0 0 1595 1080" fill="none" xmlns="http://www.w3.org/2000/svg">
<g opacity="0.6">
<g filter="url(#filter0_df_19_13114)">
<path d="M1545.84 1039.94L1545.84 1039.94L1565.57 982.189C1565.83 981.427 1565.55 980.618 1564.84 980.07L1510.13 938.35C1509.41 937.802 1508.36 937.596 1507.38 937.807C1507.38 937.807 1507.38 937.807 1507.38 937.807L1432.93 953.829L1432.93 953.829C1431.95 954.04 1431.19 954.639 1430.93 955.4L1430.93 955.4L1411.2 1013.15C1410.94 1013.91 1411.22 1014.72 1411.93 1015.27L1466.64 1056.99C1467.36 1057.54 1468.41 1057.74 1469.39 1057.53L1543.84 1041.51L1543.84 1041.51C1544.82 1041.3 1545.58 1040.7 1545.84 1039.94Z" stroke="#FE9C42" shape-rendering="crispEdges"/>
</g>
<g filter="url(#filter1_d_19_13114)">
<path d="M1297.11 898.235L1288.27 889.745C1288.14 889.611 1287.91 889.546 1287.69 889.572L1273.72 891.265C1273.5 891.291 1273.32 891.407 1273.24 891.567L1268.11 901.751C1268.03 901.912 1268.06 902.094 1268.2 902.227L1277.04 910.718C1277.18 910.852 1277.4 910.917 1277.62 910.891L1291.59 909.198C1291.81 909.172 1292 909.056 1292.08 908.896L1297.21 898.711C1297.29 898.551 1297.25 898.369 1297.11 898.235Z" fill="#FE9C42"/>
</g>
<g filter="url(#filter2_df_19_13114)">
<path d="M67.5514 839.924L99.3809 861.17C99.8827 861.505 100.112 862.024 99.9861 862.528L92.0076 894.538C91.882 895.043 91.4177 895.458 90.7904 895.628L50.9775 906.389C50.3501 906.559 49.6527 906.459 49.1509 906.124L17.3214 884.878C16.8196 884.543 16.5906 884.025 16.7162 883.52L24.6947 851.51C24.8203 851.006 25.2846 850.59 25.9119 850.421L65.7248 839.659C66.3522 839.49 67.0496 839.589 67.5514 839.924Z" fill="#FE9C42"/>
</g>
<g filter="url(#filter3_df_19_13114)">
<path d="M672.469 20.9824L670.118 53.4368C670.08 53.9484 669.688 54.4052 669.095 54.6361L631.416 69.2858C630.823 69.5168 630.114 69.4861 629.557 69.2054L594.23 51.3958C593.674 51.1151 593.35 50.6273 593.387 50.1157L595.739 17.6613C595.776 17.1497 596.168 16.6929 596.762 16.4619L634.44 1.81222C635.034 1.58129 635.743 1.61198 636.299 1.8927L671.626 19.7023C672.183 19.983 672.506 20.4708 672.469 20.9824Z" fill="#FE9C42"/>
</g>
<g filter="url(#filter4_df_19_13114)">
<path d="M1156.44 988.142L1171.46 998.172C1171.7 998.33 1171.81 998.575 1171.75 998.813L1167.98 1013.93C1167.92 1014.16 1167.7 1014.36 1167.41 1014.44L1148.61 1019.52C1148.32 1019.6 1147.99 1019.55 1147.75 1019.4L1132.72 1009.36C1132.49 1009.21 1132.38 1008.96 1132.44 1008.72L1136.2 993.611C1136.26 993.373 1136.48 993.177 1136.78 993.097L1155.57 988.017C1155.87 987.937 1156.2 987.984 1156.44 988.142Z" fill="#FE9C42"/>
</g>
<g filter="url(#filter5_df_19_13114)">
<path d="M264.997 833.576L264.997 833.576L268.521 819.438C268.521 819.438 268.521 819.438 268.521 819.438C268.538 819.369 268.508 819.291 268.429 819.239L254.372 809.856C254.294 809.804 254.189 809.791 254.104 809.815C254.104 809.815 254.104 809.815 254.103 809.815L236.52 814.567L236.52 814.567C236.439 814.589 236.38 814.642 236.364 814.707L236.364 814.707L232.84 828.844C232.84 828.845 232.84 828.845 232.84 828.845C232.823 828.914 232.854 828.991 232.932 829.043L246.99 838.427C247.068 838.479 247.172 838.491 247.258 838.468C247.258 838.468 247.258 838.468 247.258 838.468L264.842 833.715L264.842 833.715C264.923 833.693 264.981 833.641 264.997 833.576Z" stroke="#FE9C42" shape-rendering="crispEdges"/>
</g>
<g filter="url(#filter6_df_19_13114)">
<path d="M826.836 112.808L826.836 112.808L843.477 106.338C843.477 106.338 843.477 106.338 843.477 106.338C843.538 106.314 843.573 106.285 843.588 106.267C843.596 106.257 843.599 106.252 843.6 106.249L844.638 91.9184C844.638 91.9159 844.636 91.9099 844.629 91.9002C844.616 91.8804 844.586 91.8486 844.529 91.8198L828.927 83.9541L828.927 83.954C828.806 83.8932 828.641 83.886 828.512 83.9361L828.512 83.9361L811.871 90.4063C811.81 90.43 811.776 90.459 811.76 90.4775C811.752 90.4866 811.749 90.4924 811.749 90.4948L810.71 104.826C810.711 104.828 810.713 104.834 810.719 104.844C810.732 104.864 810.762 104.895 810.819 104.924L826.422 112.79L826.422 112.79C826.542 112.851 826.708 112.858 826.836 112.808Z" stroke="#FE9C42" shape-rendering="crispEdges"/>
</g>
</g>
<defs>
<filter id="filter0_df_19_13114" x="1394.54" y="921.293" width="195.689" height="160.752" filterUnits="userSpaceOnUse" color-interpolation-filters="sRGB">
<feFlood flood-opacity="0" result="BackgroundImageFix"/>
<feColorMatrix in="SourceAlpha" type="matrix" values="0 0 0 0 0 0 0 0 0 0 0 0 0 0 0 0 0 0 127 0" result="hardAlpha"/>
<feOffset dx="4" dy="4"/>
<feGaussianBlur stdDeviation="10"/>
<feComposite in2="hardAlpha" operator="out"/>
<feColorMatrix type="matrix" values="0 0 0 0 0.996078 0 0 0 0 0.611765 0 0 0 0 0.258824 0 0 0 0.3 0"/>
<feBlend mode="normal" in2="BackgroundImageFix" result="effect1_dropShadow_19_13114"/>
<feBlend mode="normal" in="SourceGraphic" in2="effect1_dropShadow_19_13114" result="shape"/>
<feGaussianBlur stdDeviation="5" result="effect2_foregroundBlur_19_13114"/>
</filter>
<filter id="filter1_d_19_13114" x="1252.06" y="873.566" width="69.1846" height="61.33" filterUnits="userSpaceOnUse" color-interpolation-filters="sRGB">
<feFlood flood-opacity="0" result="BackgroundImageFix"/>
<feColorMatrix in="SourceAlpha" type="matrix" values="0 0 0 0 0 0 0 0 0 0 0 0 0 0 0 0 0 0 127 0" result="hardAlpha"/>
<feOffset dx="4" dy="4"/>
<feGaussianBlur stdDeviation="10"/>
<feComposite in2="hardAlpha" operator="out"/>
<feColorMatrix type="matrix" values="0 0 0 0 0.996078 0 0 0 0 0.611765 0 0 0 0 0.258824 0 0 0 0.3 0"/>
<feBlend mode="normal" in2="BackgroundImageFix" result="effect1_dropShadow_19_13114"/>
<feBlend mode="normal" in="SourceGraphic" in2="effect1_dropShadow_19_13114" result="shape"/>
</filter>
<filter id="filter2_df_19_13114" x="0.682617" y="823.578" width="123.337" height="106.892" filterUnits="userSpaceOnUse" color-interpolation-filters="sRGB">
<feFlood flood-opacity="0" result="BackgroundImageFix"/>
<feColorMatrix in="SourceAlpha" type="matrix" values="0 0 0 0 0 0 0 0 0 0 0 0 0 0 0 0 0 0 127 0" result="hardAlpha"/>
<feOffset dx="4" dy="4"/>
<feGaussianBlur stdDeviation="10"/>
<feComposite in2="hardAlpha" operator="out"/>
<feColorMatrix type="matrix" values="0 0 0 0 0.996078 0 0 0 0 0.611765 0 0 0 0 0.258824 0 0 0 0.3 0"/>
<feBlend mode="normal" in2="BackgroundImageFix" result="effect1_dropShadow_19_13114"/>
<feBlend mode="normal" in="SourceGraphic" in2="effect1_dropShadow_19_13114" result="shape"/>
<feGaussianBlur stdDeviation="2.5" result="effect2_foregroundBlur_19_13114"/>
</filter>
<filter id="filter3_df_19_13114" x="577.385" y="-14.3417" width="119.087" height="107.781" filterUnits="userSpaceOnUse" color-interpolation-filters="sRGB">
<feFlood flood-opacity="0" result="BackgroundImageFix"/>
<feColorMatrix in="SourceAlpha" type="matrix" values="0 0 0 0 0 0 0 0 0 0 0 0 0 0 0 0 0 0 127 0" result="hardAlpha"/>
<feOffset dx="4" dy="4"/>
<feGaussianBlur stdDeviation="10"/>
<feComposite in2="hardAlpha" operator="out"/>
<feColorMatrix type="matrix" values="0 0 0 0 0.996078 0 0 0 0 0.611765 0 0 0 0 0.258824 0 0 0 0.3 0"/>
<feBlend mode="normal" in2="BackgroundImageFix" result="effect1_dropShadow_19_13114"/>
<feBlend mode="normal" in="SourceGraphic" in2="effect1_dropShadow_19_13114" result="shape"/>
<feGaussianBlur stdDeviation="2.5" result="effect2_foregroundBlur_19_13114"/>
</filter>
<filter id="filter4_df_19_13114" x="1116.42" y="971.978" width="79.3438" height="71.5803" filterUnits="userSpaceOnUse" color-interpolation-filters="sRGB">
<feFlood flood-opacity="0" result="BackgroundImageFix"/>
<feColorMatrix in="SourceAlpha" type="matrix" values="0 0 0 0 0 0 0 0 0 0 0 0 0 0 0 0 0 0 127 0" result="hardAlpha"/>
<feOffset dx="4" dy="4"/>
<feGaussianBlur stdDeviation="10"/>
<feComposite in2="hardAlpha" operator="out"/>
<feColorMatrix type="matrix" values="0 0 0 0 0.996078 0 0 0 0 0.611765 0 0 0 0 0.258824 0 0 0 0.3 0"/>
<feBlend mode="normal" in2="BackgroundImageFix" result="effect1_dropShadow_19_13114"/>
<feBlend mode="normal" in="SourceGraphic" in2="effect1_dropShadow_19_13114" result="shape"/>
<feGaussianBlur stdDeviation="2.5" result="effect2_foregroundBlur_19_13114"/>
</filter>
<filter id="filter5_df_19_13114" x="216.277" y="793.369" width="76.8066" height="69.5438" filterUnits="userSpaceOnUse" color-interpolation-filters="sRGB">
<feFlood flood-opacity="0" result="BackgroundImageFix"/>
<feColorMatrix in="SourceAlpha" type="matrix" values="0 0 0 0 0 0 0 0 0 0 0 0 0 0 0 0 0 0 127 0" result="hardAlpha"/>
<feOffset dx="4" dy="4"/>
<feGaussianBlur stdDeviation="10"/>
<feComposite in2="hardAlpha" operator="out"/>
<feColorMatrix type="matrix" values="0 0 0 0 0.996078 0 0 0 0 0.611765 0 0 0 0 0.258824 0 0 0 0.3 0"/>
<feBlend mode="normal" in2="BackgroundImageFix" result="effect1_dropShadow_19_13114"/>
<feBlend mode="normal" in="SourceGraphic" in2="effect1_dropShadow_19_13114" result="shape"/>
<feGaussianBlur stdDeviation="2.5" result="effect2_foregroundBlur_19_13114"/>
</filter>
<filter id="filter6_df_19_13114" x="794.209" y="67.4038" width="74.9307" height="69.9364" filterUnits="userSpaceOnUse" color-interpolation-filters="sRGB">
<feFlood flood-opacity="0" result="BackgroundImageFix"/>
<feColorMatrix in="SourceAlpha" type="matrix" values="0 0 0 0 0 0 0 0 0 0 0 0 0 0 0 0 0 0 127 0" result="hardAlpha"/>
<feOffset dx="4" dy="4"/>
<feGaussianBlur stdDeviation="10"/>
<feComposite in2="hardAlpha" operator="out"/>
<feColorMatrix type="matrix" values="0 0 0 0 0.996078 0 0 0 0 0.611765 0 0 0 0 0.258824 0 0 0 0.3 0"/>
<feBlend mode="normal" in2="BackgroundImageFix" result="effect1_dropShadow_19_13114"/>
<feBlend mode="normal" in="SourceGraphic" in2="effect1_dropShadow_19_13114" result="shape"/>
<feGaussianBlur stdDeviation="2.5" result="effect2_foregroundBlur_19_13114"/>
</filter>
</defs>
</svg>
