<svg width="325" height="44" viewBox="0 0 325 44" fill="none" xmlns="http://www.w3.org/2000/svg">
<g clip-path="url(#clip0_166_583)">
<path d="M83.525 8.09425C85.8482 5.87562 88.0017 2.63381 87.7317 0.133888C85.2319 -0.390005 82.5313 0.657781 79.3806 2.77445C79.4152 2.64787 79.4464 2.54239 79.5018 2.33143C78.6812 2.32088 77.3656 2.54942 76.8705 2.99245C75.7798 3.96639 74.845 5.22163 73.9725 6.39951C73.3043 7.29962 72.733 8.27357 72.0371 9.33894C72.9615 8.92404 73.7302 8.58298 74.5196 8.22786C74.9454 9.08578 74.4157 9.62022 73.7648 10.0457C68.7721 13.3156 52.6378 23.6282 52.6378 23.6282C52.5236 22.9004 52.4647 22.039 52.4647 21.2795C52.4647 13.3965 58.7211 7.47894 66.5113 6.82144C67.4288 6.74408 69.7658 6.93747 69.7658 6.93747L72.5599 1.88137C72.5599 1.88137 69.5165 0.949614 66.5182 0.942582C55.4631 0.925002 46.4992 10.0492 46.4992 21.2795C46.4992 23.3962 46.8177 25.439 47.4098 27.3588L45 44.0003C45 44.0003 68.4882 19.6762 75.8491 12.5491C76.4688 11.9479 77.002 11.6349 77.7984 12.1518C77.3621 12.8866 77.0055 13.5125 76.5 14.3599C76.6593 14.2966 78.0269 13.6461 79.5122 12.8198C80.7621 12.1272 82.3409 11.2693 83.1026 10.6047C83.6946 10.0879 84.3248 8.8502 84.1067 7.93251C83.9751 7.96416 83.6669 8.05558 83.525 8.09425ZM79.533 8.70605C79.4464 9.55342 78.6985 10.1301 77.8364 10.0175C77.0297 9.91557 76.4446 9.1561 76.545 8.34389C76.6454 7.52113 77.3759 6.94098 78.1931 7.03592C79.0759 7.13788 79.623 7.82 79.533 8.70605Z" fill="url(#paint0_linear_166_583)"/>
<path d="M79.8411 16.466C79.8411 16.466 80.4816 19.3246 80.4609 21.1635C80.3743 29.1801 74.1699 35.4351 66.4074 35.4351C65.9088 35.4351 65.4172 35.407 64.9325 35.3543L61.4217 40.8569C63.0178 41.2718 64.6866 41.4968 66.4109 41.4968C77.4694 41.4968 86.5822 32.6786 86.4368 21.1599C86.4056 18.6002 85.9313 15.478 85.09 13.72L79.8411 16.466Z" fill="url(#paint1_linear_166_583)"/>
</g>
<path d="M111.892 38.6903C108.602 38.6903 105.619 37.9787 102.944 36.5555C100.3 35.1014 98.2094 33.1058 96.672 30.5687C95.1654 28.0007 94.4121 25.1079 94.4121 21.8902C94.4121 18.6725 95.1654 15.7951 96.672 13.2581C98.2094 10.6901 100.3 8.69452 102.944 7.2713C105.619 5.81714 108.617 5.09007 111.938 5.09007C114.736 5.09007 117.257 5.5851 119.502 6.57516C121.777 7.56523 123.683 8.98844 125.221 10.8448L120.424 15.3001C118.241 12.7631 115.535 11.4945 112.307 11.4945C110.308 11.4945 108.525 11.9432 106.957 12.8404C105.389 13.7067 104.159 14.9288 103.267 16.5067C102.406 18.0846 101.976 19.8791 101.976 21.8902C101.976 23.9013 102.406 25.6958 103.267 27.2737C104.159 28.8516 105.389 30.0892 106.957 30.9864C108.525 31.8527 110.308 32.2859 112.307 32.2859C115.535 32.2859 118.241 31.0019 120.424 28.4339L125.221 32.8892C123.683 34.7765 121.777 36.2152 119.502 37.2052C117.226 38.1953 114.69 38.6903 111.892 38.6903Z" fill="white"/>
<path d="M140.71 38.5047C138.096 38.5047 135.744 37.9633 133.654 36.8804C131.593 35.7666 129.979 34.2351 128.811 32.2859C127.642 30.3367 127.058 28.1245 127.058 25.6493C127.058 23.1742 127.642 20.962 128.811 19.0128C129.979 17.0636 131.593 15.5476 133.654 14.4647C135.744 13.3509 138.096 12.794 140.71 12.794C143.323 12.794 145.66 13.3509 147.72 14.4647C149.78 15.5476 151.395 17.0636 152.563 19.0128C153.731 20.962 154.316 23.1742 154.316 25.6493C154.316 28.1245 153.731 30.3367 152.563 32.2859C151.395 34.2351 149.78 35.7666 147.72 36.8804C145.66 37.9633 143.323 38.5047 140.71 38.5047ZM140.71 32.5643C142.555 32.5643 144.061 31.9455 145.23 30.7079C146.429 29.4394 147.028 27.7532 147.028 25.6493C147.028 23.5455 146.429 21.8747 145.23 20.6372C144.061 19.3686 142.555 18.7344 140.71 18.7344C138.865 18.7344 137.343 19.3686 136.144 20.6372C134.945 21.8747 134.345 23.5455 134.345 25.6493C134.345 27.7532 134.945 29.4394 136.144 30.7079C137.343 31.9455 138.865 32.5643 140.71 32.5643Z" fill="white"/>
<path d="M159.125 13.1653H166.32V38.1334H159.125V13.1653ZM162.722 9.68458C161.4 9.68458 160.324 9.29783 159.494 8.52435C158.663 7.75086 158.248 6.79174 158.248 5.64698C158.248 4.50222 158.663 3.54309 159.494 2.76961C160.324 1.99612 161.4 1.60938 162.722 1.60938C164.044 1.60938 165.12 1.98065 165.951 2.7232C166.781 3.46575 167.196 4.39393 167.196 5.50775C167.196 6.71439 166.781 7.71992 165.951 8.52435C165.12 9.29783 164.044 9.68458 162.722 9.68458Z" fill="white"/>
<path d="M188.078 12.794C191.153 12.794 193.628 13.7222 195.504 15.5785C197.41 17.4349 198.363 20.1885 198.363 23.8394V38.1334H191.168V24.9532C191.168 22.9731 190.738 21.5035 189.877 20.5443C189.016 19.5543 187.771 19.0592 186.141 19.0592C184.327 19.0592 182.882 19.6316 181.806 20.7764C180.73 21.8902 180.192 23.5609 180.192 25.7886V38.1334H172.997V13.1653H179.869V16.089C180.822 15.0371 182.006 14.2327 183.42 13.6758C184.835 13.0879 186.387 12.794 188.078 12.794Z" fill="white"/>
<path d="M236.339 38.1334L236.293 14.4647L224.625 34.1886H222.503L210.835 14.604V38.1334H206.407V5.64698H210.189L223.656 28.4803L236.939 5.64698H240.721L240.767 38.1334H236.339Z" fill="white"/>
<path d="M249.81 13.5365H254.238V38.1334H249.81V13.5365ZM252.024 8.8028C251.163 8.8028 250.44 8.52435 249.856 7.96744C249.303 7.41053 249.026 6.72986 249.026 5.92543C249.026 5.12101 249.303 4.44034 249.856 3.88343C250.44 3.29558 251.163 3.00165 252.024 3.00165C252.885 3.00165 253.592 3.28011 254.145 3.83702C254.73 4.36299 255.022 5.02819 255.022 5.83261C255.022 6.66798 254.73 7.37959 254.145 7.96744C253.592 8.52435 252.885 8.8028 252.024 8.8028Z" fill="white"/>
<path d="M262.691 3.69779H267.119V38.1334H262.691V3.69779Z" fill="white"/>
<path d="M275.573 3.69779H280V38.1334H275.573V3.69779Z" fill="white"/>
<ellipse cx="162.575" cy="5.86667" rx="4.85848" ry="4.88889" fill="url(#paint2_linear_166_583)"/>
<defs>
<linearGradient id="paint0_linear_166_583" x1="38.666" y1="-3.97171" x2="64.8358" y2="59.4757" gradientUnits="userSpaceOnUse">
<stop stop-color="#FAB050"/>
<stop offset="1" stop-color="#EB722E"/>
</linearGradient>
<linearGradient id="paint1_linear_166_583" x1="38.666" y1="-3.97171" x2="64.8358" y2="59.4757" gradientUnits="userSpaceOnUse">
<stop stop-color="#FAB050"/>
<stop offset="1" stop-color="#EB722E"/>
</linearGradient>
<linearGradient id="paint2_linear_166_583" x1="156.277" y1="0.0950672" x2="162" y2="14.2852" gradientUnits="userSpaceOnUse">
<stop stop-color="#FAB050"/>
<stop offset="1" stop-color="#EB722E"/>
</linearGradient>
<clipPath id="clip0_166_583">
<rect width="42.7547" height="44" fill="white" transform="translate(45)"/>
</clipPath>
</defs>
</svg>
