<svg width="20" height="20" viewBox="0 0 20 20" fill="none" xmlns="http://www.w3.org/2000/svg">
<path d="M20.0005 8.20312C20.0005 9.62777 19.6294 11.0313 18.9273 12.2621C18.7136 12.6368 18.2364 12.7675 17.8616 12.5536C17.4868 12.3398 17.3563 11.8627 17.5701 11.4879C18.1379 10.4926 18.438 9.35672 18.438 8.20312C18.438 4.54148 15.459 1.5625 11.7973 1.5625C8.1357 1.5625 5.15672 4.54148 5.15672 8.20312C5.15672 11.8648 8.1357 14.8438 11.7973 14.8438C12.9369 14.8438 14.0606 14.5505 15.0472 13.9957C15.4233 13.7841 15.8996 13.9176 16.1111 14.2937C16.3226 14.6698 16.1892 15.1461 15.8131 15.3576C14.5932 16.0436 13.2046 16.4062 11.7973 16.4062C9.82559 16.4062 8.01422 15.7068 6.59793 14.5432L1.33227 19.773C1.17988 19.9244 0.980781 20 0.781719 20C0.580859 20 0.380117 19.923 0.227422 19.7693C-0.0766408 19.4632 -0.0749221 18.9685 0.231211 18.6645L5.48977 13.4417C4.30672 12.0197 3.59422 10.1931 3.59422 8.20312C3.59422 3.67992 7.27414 0 11.7973 0C16.3205 0 20.0005 3.67992 20.0005 8.20312ZM11.7583 11.4062C11.3268 11.4062 10.977 11.756 10.977 12.1875C10.977 12.619 11.3268 12.9688 11.7583 12.9688C12.1898 12.9688 12.5395 12.619 12.5395 12.1875C12.5395 11.756 12.1898 11.4062 11.7583 11.4062ZM12.5783 9.63723C12.5783 9.38398 12.723 9.15855 12.9468 9.06297C14.0285 8.60121 14.7273 7.54285 14.727 6.3668C14.727 6.35582 14.7268 6.34496 14.7263 6.3341C14.7087 4.73387 13.4014 3.4375 11.7971 3.4375C10.1818 3.4375 8.86766 4.75164 8.86766 6.36691C8.86766 6.7984 9.21742 7.14816 9.64891 7.14816C10.0804 7.14816 10.4302 6.7984 10.4302 6.36691C10.4302 5.6132 11.0434 5 11.7971 5C12.5508 5 13.164 5.6132 13.164 6.36691C13.164 6.37445 13.1641 6.38199 13.1643 6.38949C13.1557 6.92961 12.8315 7.41324 12.3334 7.62594C11.533 7.96762 11.0158 8.75707 11.0158 9.63719V9.6875C11.0158 10.119 11.3656 10.4688 11.7971 10.4688C12.2286 10.4688 12.5783 10.119 12.5783 9.6875V9.63723Z" fill="white"/>
</svg>
