<svg width="21" height="20" viewBox="0 0 21 20" fill="none" xmlns="http://www.w3.org/2000/svg">
<path d="M5.74219 20C8.90843 20 11.4844 17.3832 11.4844 14.1667C11.4844 10.9502 8.90843 8.33333 5.74219 8.33333C2.57595 8.33333 0 10.9502 0 14.1667C0 17.3832 2.57595 20 5.74219 20ZM5.74219 10C8.00379 10 9.84375 11.8692 9.84375 14.1667C9.84375 16.4642 8.00379 18.3333 5.74219 18.3333C3.48059 18.3333 1.64062 16.4642 1.64062 14.1667C1.64062 11.8692 3.48059 10 5.74219 10Z" fill="white"/>
<path d="M16.8984 11.6667C14.6368 11.6667 12.7969 13.5358 12.7969 15.8333C12.7969 18.1308 14.6368 20 16.8984 20C19.16 20 21 18.1308 21 15.8333C21 13.5358 19.16 11.6667 16.8984 11.6667ZM16.8984 18.3333C15.5415 18.3333 14.4375 17.2118 14.4375 15.8333C14.4375 14.4548 15.5415 13.3333 16.8984 13.3333C18.2554 13.3333 19.3594 14.4548 19.3594 15.8333C19.3594 17.2118 18.2554 18.3333 16.8984 18.3333Z" fill="white"/>
<path d="M18.7031 10.7285C19.1562 10.7285 19.5234 10.3554 19.5234 9.89517V9.16667C19.5234 7.78817 18.4195 6.66667 17.0625 6.66667H15.0622C14.6851 6.66667 14.3578 6.40704 14.2663 6.03542L13.2471 1.89358C12.9727 0.778667 11.991 0 10.8597 0H7.21875C5.86179 0 4.75781 1.1215 4.75781 2.5V6.333C4.75781 6.79325 5.12507 7.16633 5.57812 7.16633C6.03118 7.16633 6.39844 6.79325 6.39844 6.333V2.5C6.39844 2.0405 6.76643 1.66667 7.21875 1.66667H10.8597C11.2368 1.66667 11.5641 1.92625 11.6555 2.29783L12.6747 6.43967C12.9492 7.55463 13.931 8.33333 15.0622 8.33333H17.0625C17.5148 8.33333 17.8828 8.70717 17.8828 9.16667V9.89517C17.8828 10.3554 18.2501 10.7285 18.7031 10.7285Z" fill="white"/>
<path d="M18.7031 0C17.3462 0 16.2422 1.1215 16.2422 2.5V4.16667C16.2422 4.62692 16.6094 5 17.0625 5C17.5156 5 17.8828 4.62692 17.8828 4.16667V2.5C17.8828 2.0405 18.2508 1.66667 18.7031 1.66667C19.1562 1.66667 19.5234 1.29358 19.5234 0.833333C19.5234 0.373083 19.1562 0 18.7031 0Z" fill="white"/>
<path d="M16.8984 16.6667C17.3515 16.6667 17.7188 16.2936 17.7188 15.8333C17.7188 15.3731 17.3515 15 16.8984 15C16.4454 15 16.0781 15.3731 16.0781 15.8333C16.0781 16.2936 16.4454 16.6667 16.8984 16.6667Z" fill="white"/>
<path d="M10.1719 5H8.85938C8.40632 5 8.03906 5.37308 8.03906 5.83333C8.03906 6.29358 8.40632 6.66667 8.85938 6.66667H10.1719C10.6249 6.66667 10.9922 6.29358 10.9922 5.83333C10.9922 5.37308 10.6249 5 10.1719 5Z" fill="white"/>
<path d="M5.74219 16.6667C7.09915 16.6667 8.20312 15.5452 8.20312 14.1667C8.20312 12.7882 7.09915 11.6667 5.74219 11.6667C4.38523 11.6667 3.28125 12.7882 3.28125 14.1667C3.28125 15.5452 4.38523 16.6667 5.74219 16.6667ZM5.74219 13.3333C6.19451 13.3333 6.5625 13.7072 6.5625 14.1667C6.5625 14.6262 6.19451 15 5.74219 15C5.28987 15 4.92188 14.6262 4.92188 14.1667C4.92188 13.7072 5.28987 13.3333 5.74219 13.3333Z" fill="white"/>
</svg>
