<svg width="21" height="20" viewBox="0 0 21 20" fill="none" xmlns="http://www.w3.org/2000/svg">
<path d="M20.7616 9.20218L12.2144 0.658141C12.2034 0.647143 12.192 0.636472 12.1805 0.626126C11.2472 -0.206067 9.83685 -0.209041 8.89997 0.619242C8.88832 0.629547 8.877 0.640178 8.86597 0.651094L0.240839 9.1997C-0.0798211 9.51757 -0.0803543 10.0334 0.23969 10.3518C0.559776 10.6702 1.07916 10.6707 1.39978 10.3529L2.05078 9.70771V16.7414C2.05078 18.5382 3.52274 20 5.33202 20H8.28515C8.73821 20 9.10546 19.6353 9.10546 19.1854V12.5461H11.9766V19.1854C11.9766 19.6353 12.3438 20 12.7969 20H15.668C17.4772 20 18.9492 18.5382 18.9492 16.7414C18.9492 16.2915 18.582 15.9268 18.1289 15.9268C17.6758 15.9268 17.3086 16.2915 17.3086 16.7414C17.3086 17.6398 16.5726 18.3707 15.668 18.3707H13.6172V11.7314C13.6172 11.2815 13.2499 10.9168 12.7969 10.9168H8.28515C7.83209 10.9168 7.46484 11.2815 7.46484 11.7314V18.3707H5.33202C4.42738 18.3707 3.6914 17.6398 3.6914 16.7414V8.10629C3.6914 8.09814 3.69128 8.09004 3.69103 8.08197L10.0056 1.82348C10.3129 1.5643 10.7637 1.56528 11.0698 1.82572L17.3086 8.06218V12.6683C17.3086 13.1182 17.6758 13.4829 18.1289 13.4829C18.582 13.4829 18.9492 13.1182 18.9492 12.6683V9.70217L19.5977 10.3505C19.7581 10.5108 19.9688 10.591 20.1797 10.591C20.3887 10.591 20.5978 10.5121 20.7578 10.3542C21.0792 10.0371 21.0809 9.52136 20.7616 9.20218Z" fill="white"/>
</svg>
