<svg width="24" height="24" viewBox="0 0 24 24" fill="none" xmlns="http://www.w3.org/2000/svg">
<g clip-path="url(#clip0_22_13573)">
<path fill-rule="evenodd" clip-rule="evenodd" d="M3.50411 3.5045C8.17678 -1.16817 15.8229 -1.16817 20.4956 3.5045C25.1682 8.17717 25.1682 15.8233 20.4956 20.496C16.5295 24.462 10.4215 25.0612 5.80758 22.2944C5.57851 22.1571 5.30257 22.1207 5.04714 22.1989L0.728412 23.5205C0.575519 23.5674 0.432697 23.4244 0.479389 23.2717L1.80105 18.9529C1.87923 18.6975 1.84298 18.4216 1.70546 18.1923C-1.06108 13.5784 -0.461957 7.47057 3.50411 3.5045ZM11.5 8.27116C12.4335 8.27116 13.1902 7.53889 13.1902 6.63556C13.1902 5.73223 12.4335 4.99996 11.5 4.99996C10.5665 4.99996 9.80971 5.73223 9.80971 6.63556C9.80971 7.53889 10.5665 8.27116 11.5 8.27116ZM12.811 17.0314H13.9582C14.5099 17.0314 14.9796 17.4464 14.9993 17.9798C15.0199 18.5397 14.557 19 13.9827 19H9.01743C8.44317 19 7.98012 18.5397 8.00084 17.9798C8.02042 17.4464 8.49013 17.0314 9.04176 17.0314H10.1889C10.3513 17.0314 10.4828 16.904 10.4828 16.7471V11.8075C10.4828 11.6506 10.3513 11.5233 10.1889 11.5233H9.01724C8.44317 11.5233 7.98012 11.0631 8.00065 10.503C8.02023 9.96978 8.49013 9.55462 9.04157 9.55462H11.5C12.0617 9.55462 12.5172 9.99534 12.5172 10.5389V16.7471C12.5172 16.9041 12.6487 17.0314 12.811 17.0314Z" fill="#56606C"/>
</g>
<defs>
<clipPath id="clip0_22_13573">
<rect width="24" height="24" fill="white"/>
</clipPath>
</defs>
</svg>
