<svg width="40" height="40" viewBox="0 0 40 40" fill="none" xmlns="http://www.w3.org/2000/svg">
<circle cx="20" cy="20" r="19.5" stroke="#56606C"/>
<g clip-path="url(#clip0_166_640)">
<path d="M17.3307 26.2161C17.3307 26.6794 16.9833 26.8708 16.5987 26.6794L12.4467 24.6041C12.3213 24.5448 12.216 24.4454 12.13 24.3061C12.044 24.1668 12 24.0281 12 23.8914V13.7401C12 13.3614 12.2273 13.1901 12.7413 13.4461L17.304 15.7261C17.37 15.7921 17.3213 15.3388 17.3307 26.2161ZM17.902 16.6694L22.67 24.3814L17.902 22.0128V16.6694ZM28 16.8301V26.2161C28 26.3648 27.9587 26.4848 27.8747 26.5768C27.7913 26.6688 27.678 26.7148 27.5353 26.7148C27.3927 26.7148 27.2527 26.6761 27.116 26.5988L23.1787 24.6394L28 16.8301ZM27.9733 15.7614C27.9733 15.7794 27.21 17.0248 25.6833 19.4968C24.1567 21.9688 23.262 23.4168 23 23.8381L19.518 18.1921L22.4107 13.4994C22.568 13.2408 22.8907 13.1954 23.1073 13.3034L27.938 15.7081C27.9613 15.7194 27.9733 15.7374 27.9733 15.7614Z" fill="white"/>
</g>
<defs>
<clipPath id="clip0_166_640">
<rect width="16" height="16" fill="white" transform="translate(12 12)"/>
</clipPath>
</defs>
</svg>
