<svg width="21" height="6" viewBox="0 0 21 6" fill="none" xmlns="http://www.w3.org/2000/svg">
<path d="M3.00001 0C1.34314 0 0 1.34314 0 2.99997C0 4.6568 1.34314 5.99999 3.00001 5.99999C4.65687 5.99999 6.00002 4.65684 6.00002 2.99997C6.00002 1.3431 4.65683 0 3.00001 0ZM3.00001 4.5C2.1716 4.5 1.50003 3.82843 1.50003 3.00002C1.50003 2.1716 2.1716 1.50003 3.00001 1.50003C3.82842 1.50003 4.49999 2.1716 4.49999 3.00002C4.49999 3.82843 3.82842 4.5 3.00001 4.5Z" fill="white"/>
<path d="M10.5 0C8.84308 0 7.49994 1.34314 7.49994 3C7.49994 4.65686 8.84308 6 10.5 6C12.1568 6 13.5 4.65686 13.5 3C13.5 1.34314 12.1568 0 10.5 0ZM10.5 4.49998C9.67154 4.49998 8.99997 3.82841 8.99997 3C8.99997 2.17159 9.67154 1.50002 10.5 1.50002C11.3284 1.50002 11.9999 2.17159 11.9999 3C12 3.82841 11.3284 4.49998 10.5 4.49998Z" fill="white"/>
<path d="M18 0C16.3431 0 15 1.34315 15 3.00002C15 4.65689 16.3431 5.99999 18 5.99999C19.6568 5.99999 21 4.65684 21 2.99997C21 1.3431 19.6568 0 18 0ZM18 4.5C17.1716 4.5 16.5 3.82843 16.5 3.00002C16.5 2.1716 17.1716 1.50003 18 1.50003C18.8284 1.50003 19.4999 2.1716 19.4999 3.00002C19.4999 3.82843 18.8284 4.5 18 4.5Z" fill="white"/>
</svg>
