<svg width="20" height="20" viewBox="0 0 20 20" fill="none" xmlns="http://www.w3.org/2000/svg">
<path d="M19.9373 5.96656L18.2012 1.8984C17.709 0.745156 16.5808 0 15.327 0H4.67305C3.41918 0 2.29102 0.745156 1.79883 1.8984L0.0626953 5.96656C0.0213281 6.06352 0 6.16781 0 6.2732V7.28883C0 8.3568 0.64332 9.27684 1.5625 9.68328V16.875C1.5625 18.5981 2.96438 20 4.6875 20H15.3125C17.0356 20 18.4375 18.5981 18.4375 16.875C18.4375 16.4435 18.0877 16.0938 17.6562 16.0938C17.2248 16.0938 16.875 16.4435 16.875 16.875C16.875 17.7366 16.1741 18.4375 15.3125 18.4375H4.6875C3.82594 18.4375 3.125 17.7366 3.125 16.875V9.85617C3.63676 9.75512 4.09527 9.50453 4.45312 9.1518C4.52703 9.22465 4.60543 9.29289 4.6875 9.3566V14.4141C4.6875 14.8455 5.03727 15.1953 5.46875 15.1953H14.5312C14.9627 15.1953 15.3125 14.8455 15.3125 14.4141V9.3566C15.3946 9.29289 15.473 9.22465 15.5469 9.1518C15.9047 9.50453 16.3632 9.75512 16.875 9.85617V12.9688C16.875 13.4002 17.2248 13.75 17.6562 13.75C18.0877 13.75 18.4375 13.4002 18.4375 12.9688V9.68332C19.3567 9.27684 20 8.35684 20 7.28887V6.27324C20 6.16781 19.9787 6.06352 19.9373 5.96656ZM3.67188 7.28883C3.67188 7.87039 3.19875 8.34352 2.61719 8.34352C2.03562 8.34352 1.5625 7.87039 1.5625 7.28883V7.03125H3.67188V7.28883ZM5.23438 7.28883V7.03125H7.34375V7.28883C7.34375 7.87039 6.87063 8.34352 6.28906 8.34352C5.7075 8.34352 5.23438 7.87039 5.23438 7.28883ZM13.75 13.6328H6.25V9.90504C6.26305 9.90523 6.27598 9.90602 6.28906 9.90602C7.00957 9.90602 7.66301 9.61328 8.13672 9.14059C8.61656 9.61348 9.27465 9.90602 10 9.90602C10.7254 9.90602 11.3834 9.61348 11.8633 9.14059C12.337 9.61328 12.9904 9.90602 13.7109 9.90602C13.724 9.90602 13.737 9.9052 13.75 9.90504V13.6328ZM8.90625 7.24977V7.03125H11.0938V7.24977C11.0938 7.85285 10.6031 8.34352 10 8.34352C9.39691 8.34352 8.90625 7.85285 8.90625 7.24977ZM14.7656 7.28883C14.7656 7.87039 14.2925 8.34352 13.7109 8.34352C13.1294 8.34352 12.6562 7.87039 12.6562 7.28883V7.03125H14.7656V7.28883ZM1.97398 5.46875L3.23594 2.51168C3.48203 1.93508 4.04613 1.5625 4.67305 1.5625H15.327C15.9539 1.5625 16.518 1.93508 16.7641 2.51168L18.026 5.46875H1.97398ZM18.4375 7.28883C18.4375 7.87039 17.9644 8.34352 17.3828 8.34352C16.8013 8.34352 16.3281 7.87039 16.3281 7.28883V7.03125H18.4375V7.28883Z" fill="white"/>
</svg>
