<svg width="40" height="40" viewBox="0 0 40 40" fill="none" xmlns="http://www.w3.org/2000/svg">
<circle cx="20" cy="20" r="19.5" stroke="#56606C"/>
<path fill-rule="evenodd" clip-rule="evenodd" d="M17.067 25.9989C18.2958 26.01 19.5145 25.7757 20.6519 25.3098C21.7893 24.8439 22.8226 24.1557 23.6915 23.2853C24.5603 22.4149 25.2474 21.3799 25.7124 20.2406C26.1775 19.1014 26.4112 17.8807 26.4 16.6499V16.2052C27.0211 15.7316 27.5614 15.1603 28 14.5135C27.4039 14.7731 26.7761 14.9526 26.133 15.0474C26.7941 14.6316 27.2953 14.0039 27.555 13.2665C26.9128 13.6247 26.2253 13.8942 25.511 14.0678C25.2101 13.7287 24.8403 13.4579 24.4264 13.2738C24.0124 13.0896 23.5639 12.9963 23.111 13.0001C22.2428 13.0133 21.4139 13.3646 20.7999 13.9796C20.1859 14.5945 19.8352 15.4248 19.822 16.2944C19.8018 16.5354 19.8321 16.7779 19.911 17.0065C18.6029 16.9433 17.3233 16.6007 16.1582 16.0018C14.993 15.4029 13.9691 14.5615 13.155 13.534C12.8625 14.0495 12.7094 14.6327 12.711 15.2257C12.7227 15.7638 12.8569 16.2922 13.1033 16.7706C13.3498 17.2489 13.7019 17.6646 14.133 17.9861C13.5988 17.9753 13.0771 17.8217 12.622 17.5414C12.6212 18.3039 12.8877 19.0426 13.3752 19.6284C13.8626 20.2142 14.54 20.6099 15.289 20.7465C14.9995 20.8247 14.6992 20.8548 14.4 20.8356C14.1887 20.8498 13.9768 20.8195 13.778 20.7465C13.9953 21.4063 14.4108 21.9828 14.9677 22.3971C15.5245 22.8114 16.1955 23.0433 16.889 23.0612C15.7205 23.9753 14.2827 24.4762 12.8 24.4855C12.5303 24.4999 12.26 24.4698 12 24.3963C13.471 25.4662 15.2493 26.0286 17.067 25.9989Z" fill="white"/>
</svg>
