<svg width="43" height="44" viewBox="0 0 43 44" fill="none" xmlns="http://www.w3.org/2000/svg">
<g clip-path="url(#clip0_315_335)">
<path d="M38.525 8.09437C40.8482 5.87574 43.0017 2.63393 42.7317 0.13401C40.2319 -0.389883 37.5313 0.657903 34.3806 2.77457C34.4152 2.64799 34.4464 2.54251 34.5018 2.33155C33.6812 2.321 32.3656 2.54954 31.8705 2.99257C30.7798 3.96652 29.845 5.22175 28.9725 6.39963C28.3043 7.29974 27.733 8.27369 27.0371 9.33906C27.9615 8.92416 28.7302 8.58311 29.5196 8.22798C29.9454 9.0859 29.4157 9.62034 28.7648 10.0458C23.7721 13.3157 7.63783 23.6283 7.63783 23.6283C7.52357 22.9005 7.46471 22.0391 7.46471 21.2796C7.46471 13.3966 13.7211 7.47906 21.5113 6.82156C22.4288 6.74421 24.7658 6.93759 24.7658 6.93759L27.5599 1.88149C27.5599 1.88149 24.5165 0.949736 21.5182 0.942704C10.4631 0.925124 1.49918 10.0493 1.49918 21.2796C1.49918 23.3963 1.81771 25.4391 2.40976 27.3589L0 44.0004C0 44.0004 23.4882 19.6763 30.8491 12.5492C31.4688 11.948 32.002 11.635 32.7984 12.1519C32.3621 12.8868 32.0055 13.5126 31.5 14.36C31.6593 14.2967 33.0269 13.6462 34.5122 12.82C35.7621 12.1273 37.3409 11.2694 38.1026 10.6048C38.6946 10.088 39.3248 8.85033 39.1067 7.93263C38.9751 7.96428 38.6669 8.0557 38.525 8.09437ZM34.533 8.70617C34.4464 9.55354 33.6985 10.1302 32.8364 10.0177C32.0297 9.91569 31.4446 9.15622 31.545 8.34401C31.6454 7.52126 32.3759 6.94111 33.1931 7.03604C34.0759 7.138 34.623 7.82012 34.533 8.70617Z" fill="url(#paint0_linear_315_335)"/>
<path d="M34.8411 16.4661C34.8411 16.4661 35.4816 19.3247 35.4609 21.1636C35.3743 29.1802 29.1699 35.4353 21.4074 35.4353C20.9088 35.4353 20.4172 35.4071 19.9325 35.3544L16.4217 40.857C18.0178 41.2719 19.6866 41.497 21.4109 41.497C32.4694 41.497 41.5822 32.6787 41.4368 21.1601C41.4056 18.6004 40.9313 15.4781 40.09 13.7201L34.8411 16.4661Z" fill="url(#paint1_linear_315_335)"/>
</g>
<defs>
<linearGradient id="paint0_linear_315_335" x1="-6.33402" y1="-3.97159" x2="19.8358" y2="59.4758" gradientUnits="userSpaceOnUse">
<stop stop-color="#FAB050"/>
<stop offset="1" stop-color="#EB722E"/>
</linearGradient>
<linearGradient id="paint1_linear_315_335" x1="-6.33402" y1="-3.97159" x2="19.8358" y2="59.4758" gradientUnits="userSpaceOnUse">
<stop stop-color="#FAB050"/>
<stop offset="1" stop-color="#EB722E"/>
</linearGradient>
<clipPath id="clip0_315_335">
<rect width="42.7547" height="44" fill="white"/>
</clipPath>
</defs>
</svg>
